<svg width="40" height="38" viewBox="0 0 40 38" fill="none" xmlns="http://www.w3.org/2000/svg">
<path d="M28.4167 31.8C26.7833 33.3833 25 33.1333 23.2833 32.3833C21.4667 31.6167 19.8 31.5833 17.8833 32.3833C15.4833 33.4167 14.2167 33.1167 12.7833 31.8C4.64999 23.4167 5.84999 10.65 15.0833 10.1833C17.3333 10.3 18.9 11.4167 20.2167 11.5167C22.1833 11.1167 24.0667 9.96667 26.1667 10.1167C28.6833 10.3167 30.5833 11.3167 31.8333 13.1167C26.6333 16.2333 27.8667 23.0833 32.6333 25C31.6833 27.5 30.45 29.9833 28.4 31.8167L28.4167 31.8ZM20.05 10.0833C19.8 6.36667 22.8167 3.3 26.2833 3C26.7667 7.3 22.3833 10.5 20.05 10.0833Z" fill="black"/>
</svg>
