<svg width="29" height="29" viewBox="0 0 29 29" fill="none" xmlns="http://www.w3.org/2000/svg">
<g clip-path="url(#clip0_218_948)">
<path d="M17.6295 3.1296C17.1703 2.67044 16.5541 2.41669 15.9137 2.41669H7.24992C5.92075 2.41669 4.83325 3.50419 4.83325 4.83335V24.1667C4.83325 25.4959 5.90867 26.5834 7.23784 26.5834H21.7499C23.0791 26.5834 24.1666 25.4959 24.1666 24.1667V10.6696C24.1666 10.0292 23.9128 9.41294 23.4537 8.96585L17.6295 3.1296ZM18.1249 21.75H10.8749C10.2103 21.75 9.66659 21.2063 9.66659 20.5417C9.66659 19.8771 10.2103 19.3334 10.8749 19.3334H18.1249C18.7895 19.3334 19.3333 19.8771 19.3333 20.5417C19.3333 21.2063 18.7895 21.75 18.1249 21.75ZM18.1249 16.9167H10.8749C10.2103 16.9167 9.66659 16.3729 9.66659 15.7084C9.66659 15.0438 10.2103 14.5 10.8749 14.5H18.1249C18.7895 14.5 19.3333 15.0438 19.3333 15.7084C19.3333 16.3729 18.7895 16.9167 18.1249 16.9167ZM15.7083 9.66669V4.22919L22.3541 10.875H16.9166C16.252 10.875 15.7083 10.3313 15.7083 9.66669Z" fill="white"/>
</g>
<defs>
<clipPath id="clip0_218_948">
<rect width="29" height="29" fill="white"/>
</clipPath>
</defs>
</svg>
