<svg width="17" height="17" viewBox="0 0 17 17" fill="none" xmlns="http://www.w3.org/2000/svg">
<path d="M8.5 2.125C8.67349 2.12502 8.84095 2.18872 8.9706 2.30401C9.10025 2.41929 9.18308 2.57816 9.20337 2.75046L9.20833 2.83333V14.1667C9.20813 14.3472 9.139 14.5209 9.01507 14.6521C8.89113 14.7834 8.72174 14.8624 8.54151 14.873C8.36128 14.8836 8.18381 14.8249 8.04537 14.7091C7.90692 14.5932 7.81795 14.4288 7.79662 14.2495L7.79167 14.1667V2.83333C7.79167 2.64547 7.86629 2.4653 7.99913 2.33247C8.13197 2.19963 8.31214 2.125 8.5 2.125ZM5.66667 4.25C5.85453 4.25 6.0347 4.32463 6.16753 4.45747C6.30037 4.5903 6.375 4.77047 6.375 4.95833V12.0417C6.375 12.2295 6.30037 12.4097 6.16753 12.5425C6.0347 12.6754 5.85453 12.75 5.66667 12.75C5.4788 12.75 5.29864 12.6754 5.1658 12.5425C5.03296 12.4097 4.95833 12.2295 4.95833 12.0417V4.95833C4.95833 4.77047 5.03296 4.5903 5.1658 4.45747C5.29864 4.32463 5.4788 4.25 5.66667 4.25ZM11.3333 4.25C11.5212 4.25 11.7014 4.32463 11.8342 4.45747C11.967 4.5903 12.0417 4.77047 12.0417 4.95833V12.0417C12.0417 12.2295 11.967 12.4097 11.8342 12.5425C11.7014 12.6754 11.5212 12.75 11.3333 12.75C11.1455 12.75 10.9653 12.6754 10.8325 12.5425C10.6996 12.4097 10.625 12.2295 10.625 12.0417V4.95833C10.625 4.77047 10.6996 4.5903 10.8325 4.45747C10.9653 4.32463 11.1455 4.25 11.3333 4.25ZM2.83333 6.375C3.02119 6.375 3.20136 6.44963 3.3342 6.58247C3.46704 6.7153 3.54167 6.89547 3.54167 7.08333V9.91667C3.54167 10.1045 3.46704 10.2847 3.3342 10.4175C3.20136 10.5504 3.02119 10.625 2.83333 10.625C2.64547 10.625 2.4653 10.5504 2.33247 10.4175C2.19963 10.2847 2.125 10.1045 2.125 9.91667V7.08333C2.125 6.89547 2.19963 6.7153 2.33247 6.58247C2.4653 6.44963 2.64547 6.375 2.83333 6.375ZM14.1667 6.375C14.3402 6.37502 14.5076 6.43872 14.6373 6.55401C14.7669 6.66929 14.8497 6.82816 14.87 7.00046L14.875 7.08333V9.91667C14.8748 10.0972 14.8057 10.2709 14.6817 10.4021C14.5578 10.5334 14.3884 10.6124 14.2082 10.623C14.0279 10.6336 13.8505 10.5749 13.712 10.4591C13.5736 10.3432 13.4846 10.1788 13.4633 9.99954L13.4583 9.91667V7.08333C13.4583 6.89547 13.533 6.7153 13.6658 6.58247C13.7986 6.44963 13.9788 6.375 14.1667 6.375Z" fill="#353945"/>
</svg>
