<svg width="30" height="30" viewBox="0 0 30 30" fill="none" xmlns="http://www.w3.org/2000/svg">
<path d="M24.6842 22.2632C24.6842 22.5842 24.5567 22.8921 24.3296 23.1191C24.1026 23.3462 23.7947 23.4737 23.4737 23.4737L6.52631 23.4737C6.20526 23.4737 5.89735 23.3462 5.67034 23.1191C5.44332 22.8921 5.31578 22.5842 5.31578 22.2632C5.31578 21.9421 5.44332 21.6342 5.67034 21.4072C5.89735 21.1802 6.20526 21.0526 6.52631 21.0526L23.4737 21.0526C23.7947 21.0526 24.1026 21.1802 24.3296 21.4072C24.5567 21.6342 24.6842 21.9421 24.6842 22.2632ZM24.6842 7.73685C24.6842 8.0579 24.5567 8.36581 24.3296 8.59282C24.1026 8.81984 23.7947 8.94738 23.4737 8.94738L6.52631 8.94738C6.20526 8.94738 5.89735 8.81984 5.67033 8.59283C5.44332 8.36581 5.31578 8.0579 5.31578 7.73685C5.31578 7.4158 5.44332 7.1079 5.67033 6.88088C5.89735 6.65386 6.20526 6.52633 6.52631 6.52633L23.4737 6.52633C23.7947 6.52633 24.1026 6.65386 24.3296 6.88088C24.5567 7.1079 24.6842 7.4158 24.6842 7.73685ZM16.2105 16.2105C16.5316 16.2105 16.8395 16.083 17.0665 15.856C17.2935 15.629 17.421 15.3211 17.421 15C17.421 14.679 17.2935 14.3711 17.0665 14.144C16.8395 13.917 16.5316 13.7895 16.2105 13.7895L6.52631 13.7895C6.20526 13.7895 5.89735 13.917 5.67033 14.144C5.44332 14.3711 5.31578 14.679 5.31578 15C5.31578 15.3211 5.44332 15.629 5.67034 15.856C5.89735 16.083 6.20526 16.2105 6.52631 16.2105L16.2105 16.2105Z" fill="black"/>
</svg>
