<svg width="26" height="31" viewBox="0 0 26 31" fill="none" xmlns="http://www.w3.org/2000/svg">
<path d="M21.4167 28.8C19.7833 30.3833 18 30.1333 16.2833 29.3833C14.4667 28.6167 12.8 28.5833 10.8833 29.3833C8.48332 30.4167 7.21665 30.1167 5.78332 28.8C-2.35001 20.4167 -1.15001 7.65 8.08332 7.18333C10.3333 7.3 11.9 8.41667 13.2167 8.51667C15.1833 8.11667 17.0667 6.96667 19.1667 7.11667C21.6833 7.31667 23.5833 8.31667 24.8333 10.1167C19.6333 13.2333 20.8667 20.0833 25.6333 22C24.6833 24.5 23.45 26.9833 21.4 28.8167L21.4167 28.8ZM13.05 7.08333C12.8 3.36667 15.8167 0.3 19.2833 0C19.7667 4.3 15.3833 7.5 13.05 7.08333Z" fill="black"/>
</svg>
