<svg width="26" height="26" viewBox="0 0 26 26" fill="none" xmlns="http://www.w3.org/2000/svg">
<path d="M13 3.25C13.2653 3.25004 13.5214 3.34745 13.7197 3.52377C13.918 3.7001 14.0447 3.94306 14.0758 4.20658L14.0833 4.33333V21.6667C14.083 21.9428 13.9773 22.2084 13.7877 22.4091C13.5982 22.6099 13.3391 22.7308 13.0635 22.7469C12.7878 22.7631 12.5164 22.6734 12.3047 22.4962C12.0929 22.319 11.9569 22.0676 11.9243 21.7934L11.9167 21.6667V4.33333C11.9167 4.04602 12.0308 3.77047 12.234 3.5673C12.4371 3.36414 12.7127 3.25 13 3.25ZM8.66667 6.5C8.95398 6.5 9.22953 6.61414 9.4327 6.8173C9.63586 7.02047 9.75 7.29602 9.75 7.58333V18.4167C9.75 18.704 9.63586 18.9795 9.4327 19.1827C9.22953 19.3859 8.95398 19.5 8.66667 19.5C8.37935 19.5 8.1038 19.3859 7.90063 19.1827C7.69747 18.9795 7.58333 18.704 7.58333 18.4167V7.58333C7.58333 7.29602 7.69747 7.02047 7.90063 6.8173C8.1038 6.61414 8.37935 6.5 8.66667 6.5ZM17.3333 6.5C17.6207 6.5 17.8962 6.61414 18.0994 6.8173C18.3025 7.02047 18.4167 7.29602 18.4167 7.58333V18.4167C18.4167 18.704 18.3025 18.9795 18.0994 19.1827C17.8962 19.3859 17.6207 19.5 17.3333 19.5C17.046 19.5 16.7705 19.3859 16.5673 19.1827C16.3641 18.9795 16.25 18.704 16.25 18.4167V7.58333C16.25 7.29602 16.3641 7.02047 16.5673 6.8173C16.7705 6.61414 17.046 6.5 17.3333 6.5ZM4.33333 9.75C4.62065 9.75 4.8962 9.86414 5.09937 10.0673C5.30253 10.2705 5.41667 10.546 5.41667 10.8333V15.1667C5.41667 15.454 5.30253 15.7295 5.09937 15.9327C4.8962 16.1359 4.62065 16.25 4.33333 16.25C4.04602 16.25 3.77047 16.1359 3.5673 15.9327C3.36414 15.7295 3.25 15.454 3.25 15.1667V10.8333C3.25 10.546 3.36414 10.2705 3.5673 10.0673C3.77047 9.86414 4.04602 9.75 4.33333 9.75ZM21.6667 9.75C21.932 9.75004 22.1881 9.84745 22.3864 10.0238C22.5847 10.2001 22.7114 10.4431 22.7424 10.7066L22.75 10.8333V15.1667C22.7497 15.4428 22.644 15.7084 22.4544 15.9091C22.2649 16.1099 22.0058 16.2308 21.7302 16.2469C21.4545 16.2631 21.1831 16.1734 20.9713 15.9962C20.7596 15.819 20.6235 15.5676 20.5909 15.2934L20.5833 15.1667V10.8333C20.5833 10.546 20.6975 10.2705 20.9006 10.0673C21.1038 9.86414 21.3793 9.75 21.6667 9.75Z" fill="white"/>
</svg>
