<svg width="30" height="30" viewBox="0 0 30 30" fill="none" xmlns="http://www.w3.org/2000/svg">
<path d="M16.25 23.75C16.25 24.175 16.3 24.5875 16.3625 25H5C4.33696 25 3.70107 24.7366 3.23223 24.2678C2.76339 23.7989 2.5 23.163 2.5 22.5V7.5C2.5 6.1125 3.6125 5 5 5H12.5L15 7.5H25C25.663 7.5 26.2989 7.76339 26.7678 8.23223C27.2366 8.70107 27.5 9.33696 27.5 10V17.2625C26.7375 16.825 25.9 16.525 25 16.3625V10H5V22.5H16.3625C16.3 22.9125 16.25 23.325 16.25 23.75ZM25 22.5V18.75H22.5V22.5H18.75V25H22.5V28.75H25V25H28.75V22.5H25Z" fill="white"/>
</svg>
