<svg width="17" height="17" viewBox="0 0 17 17" fill="none" xmlns="http://www.w3.org/2000/svg">
<path d="M3.54163 7.08333L2.86871 5.63125L1.41663 4.95833L2.86871 4.28542L3.54163 2.83333L4.21454 4.28542L5.66663 4.95833L4.21454 5.63125L3.54163 7.08333ZM12.75 4.95833L12.3073 3.98438L11.3333 3.54167L12.3073 3.09896L12.75 2.125L13.1927 3.09896L14.1666 3.54167L13.1927 3.98438L12.75 4.95833ZM14.1666 7.79167L13.7239 6.81771L12.75 6.375L13.7239 5.93229L14.1666 4.95833L14.6093 5.93229L15.5833 6.375L14.6093 6.81771L14.1666 7.79167ZM8.49996 10.625C7.90968 10.625 7.40795 10.4184 6.99475 10.0052C6.58156 9.59201 6.37496 9.09028 6.37496 8.5V4.25C6.37496 3.65972 6.58156 3.15799 6.99475 2.74479C7.40795 2.3316 7.90968 2.125 8.49996 2.125C9.09024 2.125 9.59197 2.3316 10.0052 2.74479C10.4184 3.15799 10.625 3.65972 10.625 4.25V8.5C10.625 9.09028 10.4184 9.59201 10.0052 10.0052C9.59197 10.4184 9.09024 10.625 8.49996 10.625ZM7.79163 15.5833V13.4052C6.56385 13.2399 5.54857 12.691 4.74579 11.7583C3.94301 10.8257 3.54163 9.73958 3.54163 8.5H4.95829C4.95829 9.47986 5.30372 10.3152 5.99458 11.0061C6.68545 11.6969 7.52057 12.0421 8.49996 12.0417C9.47982 12.0417 10.3152 11.6962 11.006 11.0054C11.6969 10.3145 12.0421 9.47939 12.0416 8.5H13.4583C13.4583 9.73958 13.0569 10.8257 12.2541 11.7583C11.4513 12.691 10.4361 13.2399 9.20829 13.4052V15.5833H7.79163Z" fill="#353945"/>
</svg>
