<svg width="17" height="18" viewBox="0 0 17 18" fill="none" xmlns="http://www.w3.org/2000/svg">
<path d="M11.5351 2.41319C11.7614 2.16878 12.0312 1.97428 12.3289 1.84095C12.6267 1.70761 12.9464 1.63809 13.2697 1.63638C13.5929 1.63468 13.9133 1.70084 14.2123 1.83103C14.5113 1.96122 14.7829 2.15287 15.0115 2.39489C15.2401 2.63691 15.4211 2.9245 15.5441 3.24105C15.6671 3.55759 15.7296 3.89681 15.728 4.23909C15.7265 4.58137 15.6608 4.91993 15.5349 5.23519C15.409 5.55045 15.2254 5.83616 14.9946 6.07582L14.2136 6.90307L10.7538 3.24007L11.5351 2.41319ZM10.128 3.90307L2.97556 11.4773C2.70573 11.763 2.51343 12.1202 2.41881 12.5116L1.55925 16.0684C1.54021 16.1473 1.54087 16.23 1.56116 16.3084C1.58146 16.3869 1.62069 16.4584 1.675 16.516C1.72932 16.5735 1.79684 16.6151 1.87093 16.6366C1.94502 16.6582 2.02314 16.6589 2.09759 16.6388L5.45756 15.7298C5.82749 15.6296 6.16513 15.4259 6.43506 15.1399L13.5875 7.56607L10.128 3.90307Z" fill="#353945"/>
</svg>
