<svg width="20" height="20" viewBox="0 0 20 20" fill="none" xmlns="http://www.w3.org/2000/svg">
<g clip-path="url(#clip0_83_715)">
<path d="M9.16667 18.3333C4.1125 18.3333 0 14.2208 0 9.16667C0 4.1125 4.1125 0 9.16667 0C14.2208 0 18.3333 4.1125 18.3333 9.16667C18.3333 14.2208 14.2208 18.3333 9.16667 18.3333ZM9.16667 1.66667C5.03167 1.66667 1.66667 5.03083 1.66667 9.16667C1.66667 13.3025 5.03167 16.6667 9.16667 16.6667C13.3017 16.6667 16.6667 13.3025 16.6667 9.16667C16.6667 5.03083 13.3017 1.66667 9.16667 1.66667Z" fill="black"/>
<path d="M19.1667 20C19.0572 20.0001 18.9489 19.9786 18.8477 19.9367C18.7466 19.8948 18.6548 19.8333 18.5775 19.7558L14.5817 15.76C14.4254 15.6036 14.3377 15.3916 14.3378 15.1705C14.3378 14.9495 14.4257 14.7375 14.5821 14.5813C14.7385 14.425 14.9505 14.3373 15.1716 14.3373C15.3926 14.3374 15.6046 14.4253 15.7609 14.5817L19.7559 18.5775C19.8728 18.6939 19.9525 18.8424 19.9848 19.0042C20.0172 19.1659 20.0008 19.3337 19.9377 19.4861C19.8745 19.6385 19.7676 19.7687 19.6303 19.8602C19.493 19.9517 19.3317 20.0004 19.1667 20Z" fill="black"/>
</g>
<defs>
<clipPath id="clip0_83_715">
<rect width="20" height="20" fill="white"/>
</clipPath>
</defs>
</svg>
